<svg width="24" height="24" viewBox="0 0 24 24" fill="none" xmlns="http://www.w3.org/2000/svg">
<path fill-rule="evenodd" clip-rule="evenodd" d="M19 14C19 14.5523 19.4477 15 20 15C20.5523 15 21 14.5523 21 14C21 9.02944 16.9706 5 12 5C7.02944 5 3 9.02944 3 14C3 14.5523 3.44772 15 4 15C4.55229 15 5 14.5523 5 14C5 10.134 8.13401 7 12 7C15.866 7 19 10.134 19 14ZM10 13C10 11.8954 10.8954 11 12 11C13.1046 11 14 11.8954 14 13C14 14.1046 13.1046 15 12 15C10.8954 15 10 14.1046 10 13ZM12 9C9.79086 9 8 10.7909 8 13C8 15.2091 9.79086 17 12 17C14.2091 17 16 15.2091 16 13C16 10.7909 14.2091 9 12 9Z" fill="#1F1F1F"/>
</svg>
