<svg width="32" height="32" viewBox="0 0 32 32" fill="none" xmlns="http://www.w3.org/2000/svg">
<g id="Outline/bell">
<path id="Vector" fill-rule="evenodd" clip-rule="evenodd" d="M6.99566 10.624C6.99714 10.6554 6.99863 10.6813 6.99992 10.7015V15.5857L4.62615 17.9595L4.33325 18.2524V18.6666V22.6666V23.6666H5.33325H10.9999V25C10.9999 27.2091 12.7908 29 14.9999 29H16.9999C19.2091 29 20.9999 27.2091 20.9999 25V23.6666H26.6666H27.6666V22.6666V18.6666V18.2524L27.3737 17.9595L24.9999 15.5857V10.7014C25.0012 10.6813 25.0027 10.6553 25.0042 10.624C25.0075 10.5526 25.0109 10.4529 25.0116 10.3288C25.0131 10.0811 25.0042 9.73391 24.964 9.31986C24.884 8.49721 24.6773 7.38077 24.159 6.24997C23.6373 5.11182 22.7949 3.94977 21.4504 3.07766C20.1049 2.20492 18.3245 1.66663 15.9999 1.66663C13.6753 1.66663 11.895 2.20492 10.5495 3.07766C9.20498 3.94977 8.36251 5.11182 7.84085 6.24997C7.32257 7.38077 7.11584 8.49721 7.03586 9.31986C6.99561 9.73391 6.98674 10.0811 6.98822 10.3288C6.98896 10.4529 6.99229 10.5526 6.99566 10.624ZM18.9999 23.6666H12.9999V25C12.9999 26.1045 13.8953 27 14.9999 27H16.9999C18.1045 27 18.9999 26.1045 18.9999 25V23.6666ZM20.9999 21.6666H25.6666V19.0808L23.2928 16.7071L22.9999 16.4142V16V10.6666V10.625L23.0031 10.5863C23.0031 10.5868 23.0031 10.5868 23.0032 10.5863L23.0032 10.5861L23.0032 10.5853L23.0033 10.5845L23.0037 10.578C23.0043 10.5688 23.0053 10.5525 23.0064 10.5296C23.0086 10.4838 23.0111 10.4116 23.0117 10.3169C23.0128 10.1272 23.006 9.84934 22.9734 9.51339C22.9075 8.83604 22.7392 7.95248 22.3409 7.08328C21.9458 6.22143 21.33 5.38348 20.362 4.75559C19.395 4.12833 18.0086 3.66663 15.9999 3.66663C13.9912 3.66663 12.6049 4.12833 11.6379 4.75559C10.6699 5.38348 10.054 6.22143 9.65898 7.08328C9.2606 7.95248 9.09233 8.83604 9.02648 9.51339C8.99381 9.84934 8.98705 10.1272 8.98818 10.3169C8.98875 10.4116 8.99127 10.4838 8.99343 10.5296C8.99452 10.5525 8.99551 10.5688 8.99611 10.578L8.99667 10.586L8.99669 10.5863L8.99669 10.5863L8.99672 10.5867L8.99992 10.625V10.6666V16V16.4142L8.70703 16.7071L6.33325 19.0808V21.6666H10.9999H11.9999H19.9999H20.9999Z" fill="black"/>
</g>
</svg>
