<svg width="32" height="32" viewBox="0 0 32 32" fill="none" xmlns="http://www.w3.org/2000/svg">
<path fill-rule="evenodd" clip-rule="evenodd" d="M6 5.66663C4.34315 5.66663 3 7.00977 3 8.66662V23.3333C3 24.9901 4.34315 26.3333 6 26.3333H26C27.6569 26.3333 29 24.9902 29 23.3333V8.66663C29 7.00977 27.6569 5.66663 26 5.66663H6ZM5 9.08084V23.3333C5 23.8856 5.44772 24.3333 6 24.3333H26C26.5523 24.3333 27 23.8856 27 23.3333V9.08084L18.1213 17.9595C16.9497 19.1311 15.0503 19.1311 13.8787 17.9595L5 9.08084ZM25.5858 7.66663H6.41421L15.2929 16.5453C15.6834 16.9358 16.3166 16.9358 16.7071 16.5453L25.5858 7.66663Z" fill="black"/>
</svg>
