<svg width="26" height="26" viewBox="0 0 26 26" fill="none" xmlns="http://www.w3.org/2000/svg">
<path fill-rule="evenodd" clip-rule="evenodd" d="M13 2C6.92487 2 2 6.92487 2 13C2 19.0751 6.92487 24 13 24C19.0751 24 24 19.0751 24 13C24 6.92487 19.0751 2 13 2ZM0 13C0 5.8203 5.8203 0 13 0C20.1797 0 26 5.8203 26 13C26 20.1797 20.1797 26 13 26C5.8203 26 0 20.1797 0 13ZM13 6C13.5523 6 14 6.44772 14 7V14C14 14.5523 13.5523 15 13 15C12.4477 15 12 14.5523 12 14V7C12 6.44772 12.4477 6 13 6ZM14 18C14 17.4477 13.5523 17 13 17C12.4477 17 12 17.4477 12 18V19.3333C12 19.8856 12.4477 20.3333 13 20.3333C13.5523 20.3333 14 19.8856 14 19.3333V18Z" fill="black"/>
</svg>
