<svg width="21" height="24" viewBox="0 0 21 24" fill="none" xmlns="http://www.w3.org/2000/svg">
<path fill-rule="evenodd" clip-rule="evenodd" d="M7.33333 5C7.33333 3.34315 8.67648 2 10.3333 2C11.9902 2 13.3333 3.34315 13.3333 5C13.3333 6.65685 11.9902 8 10.3333 8C8.67648 8 7.33333 6.65685 7.33333 5ZM10.3333 0C7.57191 0 5.33333 2.23858 5.33333 5C5.33333 7.76142 7.57191 10 10.3333 10C13.0948 10 15.3333 7.76142 15.3333 5C15.3333 2.23858 13.0948 0 10.3333 0ZM10.6923 14C14.8806 14 18.3148 17.229 18.6413 21.3333H2.02539C2.35186 17.229 5.78603 14 9.97436 14H10.6923ZM9.97436 12C4.46567 12 0 16.4657 0 21.9744C0 22.7249 0.608433 23.3333 1.35897 23.3333H19.3077C20.0582 23.3333 20.6667 22.7249 20.6667 21.9744C20.6667 16.4657 16.201 12 10.6923 12H9.97436Z" fill="black"/>
</svg>
