<svg width="24" height="24" viewBox="0 0 24 24" fill="none" xmlns="http://www.w3.org/2000/svg">
<path fill-rule="evenodd" clip-rule="evenodd" d="M3.99999 5C4.55228 5 4.99999 5.44772 4.99999 6C4.99999 9.86599 8.134 13 12 13C15.866 13 19 9.86599 19 6C19 5.44772 19.4477 5 20 5C20.5523 5 21 5.44772 21 6C21 7.87864 20.4244 9.62285 19.4399 11.0659L21.7682 13.8598C22.1218 14.2841 22.0645 14.9147 21.6402 15.2682C21.2159 15.6218 20.5853 15.5645 20.2318 15.1402L18.1167 12.6021C17.3043 13.355 16.3528 13.9599 15.3049 14.3738L16.8944 17.5528C17.1414 18.0468 16.9412 18.6474 16.4472 18.8944C15.9532 19.1414 15.3526 18.9412 15.1056 18.4472L13.3329 14.902C12.898 14.9665 12.4529 15 12 15C11.5471 15 11.102 14.9665 10.667 14.902L8.89442 18.4472C8.64743 18.9412 8.04676 19.1414 7.55278 18.8944C7.0588 18.6474 6.85858 18.0468 7.10557 17.5528L8.69506 14.3738C7.64721 13.9599 6.69566 13.355 5.88333 12.6021L3.76822 15.1402C3.41465 15.5645 2.78409 15.6218 2.35981 15.2682C1.93553 14.9147 1.87821 14.2841 2.23177 13.8598L4.56006 11.0659C3.5756 9.62285 2.99999 7.87864 2.99999 6C2.99999 5.44772 3.44771 5 3.99999 5Z" fill="#1F1F1F"/>
</svg>
